<svg xmlns="http://www.w3.org/2000/svg" aria-label="External Link" role="img" viewBox="0 0 512 512"><rect width="512" height="512" rx="15%" fill="#09f"/><path d="m 250.4,148.3 28.4,-28.4 a 79.5,79.5 0 1 1 112.45,112.45 l -56.8,56.8 a 79.5,79.5 0 0 1 -112.45,0 17,17 0 0 1 0.4,-23.7 17.1,17.1 0 0 1 23.7,-0.4 45.4,45.4 0 0 0 64.3,0 l 56.8,-56.8 A 45.5,45.5 0 0 0 302.8,144 l -28.4,28.4 a 17.1,17.1 0 0 1 -23.7,-0.4 17.1,17.1 0 0 1 -0.4,-23.7 z M 143.8,367.3 a 45.4,45.4 0 0 0 64.3,0 l 28.4,-28.4 a 17.1,17.1 0 0 1 23.7,0.4 17.1,17.1 0 0 1 0.4,23.7 l -28.4,28.4 A 79.5,79.5 0 1 1 119.7,278.9 l 56.8,-56.8 a 79.51,79.51 0 0 1 112.45,0 17.1,17.1 0 0 1 -0.4,23.7 17.1,17.1 0 0 1 -23.7,0.4 45.4,45.4 0 0 0 -64.3,0 l -56.8,56.8 a 45.4,45.4 0 0 0 0,64.3 z" fill="#fff"/></svg>