<svg xmlns="http://www.w3.org/2000/svg" 
aria-label="Person Meetup" role="img"
viewBox="0 0 512 512"><defs><style>.c{fill:none;stroke:#435d32;stroke-linejoin:round;stroke-linecap: round;}</style></defs>
<rect id="logoBgd" width="512" height="512" rx="15%" fill="#a0c18b"/>
<path d="M405.8 403.9c-1.5-103.7 1.5-296.9-7.6-296.9-17.8 9.6-141.7 147.8-141.7 147.8-6.3-7.4-20.5-21-27.972-27.401M250.2 404.3c-47.3-10.7-93-13.3-138.5-2-2.7.7-3 3.1-3.5-1.4-.1 1.1-3.7-153.1-.5-223.1M135.8 238c-15.2-12.1-18.3-18.2-24.4-31.9-3-6.7-3.7-22.6-3.2-29.9 2.2-30.1 24.1-58.1 53.1-66.6 29-8.4 63.1 4.1 79 29.8 17.6 28.5 10.1 69.2-15.2 91.2-25.3 22-69.4 22.8-89.3 7.4" stroke-width="10px" class="c"/><path d="M297.5 209.5c2.3 2.7 9.4 9.6 12.3 11.7M405.5 254.5c-2.9.3-13.3.1-16.2-.4M323.8 231.3c4.2 3.1 9.4 5.9 13.6 7.5M369.3 250.4c-4.6-.9-9.1-2-14.1-4" stroke-width="3px" class="c"/></svg>
