<?xml version="1.0" encoding="UTF-8" standalone="no"?>
<!-- Generator: Adobe Illustrator 16.0.0, SVG Export Plug-In . SVG Version: 6.00 Build 0)  -->

<svg
   version="1.1"
   id="Layer_1"
   x="0px"
   y="0px"
   width="88.320999"
   height="88.473"
   viewBox="0 0 88.321003 88.472999"
   enable-background="new 0 0 355.666 89.333"
   xml:space="preserve"
   sodipodi:docname="logo_steam.svg"
   inkscape:version="1.1.1 (3bf5ae0d25, 2021-09-20)"
   xmlns:inkscape="http://www.inkscape.org/namespaces/inkscape"
   xmlns:sodipodi="http://sodipodi.sourceforge.net/DTD/sodipodi-0.dtd"
   xmlns="http://www.w3.org/2000/svg"
   xmlns:svg="http://www.w3.org/2000/svg"><defs
   id="defs25" /><sodipodi:namedview
   id="namedview23"
   pagecolor="#505050"
   bordercolor="#eeeeee"
   borderopacity="1"
   inkscape:pageshadow="0"
   inkscape:pageopacity="0"
   inkscape:pagecheckerboard="0"
   showgrid="false"
   inkscape:snap-global="true"
   inkscape:zoom="2.9747011"
   inkscape:cx="32.104066"
   inkscape:cy="37.818926"
   inkscape:window-width="1920"
   inkscape:window-height="1057"
   inkscape:window-x="1912"
   inkscape:window-y="-8"
   inkscape:window-maximized="1"
   inkscape:current-layer="g20" />
<g
   id="g20"
   transform="translate(-0.154,-0.601)">
	<path
   fill="#171a21"
   d="M 44.238,0.601 C 21,0.601 1.963,18.519 0.154,41.29 l 23.71,9.803 c 2.009,-1.374 4.436,-2.179 7.047,-2.179 0.234,0 0.467,0.008 0.698,0.021 L 42.153,33.652 c 0,-0.073 -10e-4,-0.144 -10e-4,-0.216 0,-9.199 7.483,-16.683 16.683,-16.683 9.199,0 16.682,7.484 16.682,16.683 0,9.199 -7.483,16.684 -16.682,16.684 -0.127,0 -0.253,-0.003 -0.379,-0.006 l -15.038,10.73 c 0.008,0.195 0.015,0.394 0.015,0.592 0,6.906 -5.617,12.522 -12.522,12.522 -6.061,0 -11.129,-4.326 -12.277,-10.055 L 1.678,56.893 c 5.25,18.568 22.309,32.181 42.56,32.181 24.432,0 44.237,-19.806 44.237,-44.235 0,-24.433 -19.806,-44.238 -44.237,-44.238"
   id="path2" />
	<path
   fill="#171a21"
   d="m 27.875,67.723 -5.434,-2.245 c 0.963,2.005 2.629,3.684 4.841,4.606 4.782,1.992 10.295,-0.277 12.288,-5.063 0.965,-2.314 0.971,-4.869 0.014,-7.189 -0.955,-2.321 -2.757,-4.131 -5.074,-5.097 -2.299,-0.957 -4.762,-0.922 -6.926,-0.105 l 5.613,2.321 c 3.527,1.47 5.195,5.52 3.725,9.047 -1.467,3.528 -5.52,5.196 -9.047,3.725"
   id="path4" />
	<path
   fill="#171a21"
   d="m 69.95,33.436 c 0,-6.129 -4.986,-11.116 -11.116,-11.116 -6.129,0 -11.116,4.987 -11.116,11.116 0,6.13 4.987,11.115 11.116,11.115 C 64.964,44.55 69.95,39.565 69.95,33.436 M 50.502,33.417 c 0,-4.612 3.739,-8.35 8.351,-8.35 4.612,0 8.351,3.738 8.351,8.35 0,4.612 -3.739,8.35 -8.351,8.35 -4.612,0 -8.351,-3.739 -8.351,-8.35"
   id="path6" />
</g>
</svg>
