<?xml version="1.0" encoding="UTF-8" standalone="no"?>
<svg
   viewBox="0 0 28.570101 20"
   preserveAspectRatio="xMidYMid meet"
   focusable="false"
   style="display:block"
   class="style-scope yt-icon"
   version="1.1"
   id="svg27"
   sodipodi:docname="youtube.svg"
   width="28.570101"
   height="20"
   inkscape:version="1.1.1 (3bf5ae0d25, 2021-09-20)"
   xmlns:inkscape="http://www.inkscape.org/namespaces/inkscape"
   xmlns:sodipodi="http://sodipodi.sourceforge.net/DTD/sodipodi-0.dtd"
   xmlns="http://www.w3.org/2000/svg"
   xmlns:svg="http://www.w3.org/2000/svg">
  <defs
     id="defs31" />
  <sodipodi:namedview
     id="namedview29"
     pagecolor="#505050"
     bordercolor="#eeeeee"
     borderopacity="1"
     inkscape:pageshadow="0"
     inkscape:pageopacity="0"
     inkscape:pagecheckerboard="0"
     showgrid="false"
     inkscape:zoom="11.755556"
     inkscape:cx="12.547259"
     inkscape:cy="8.7192817"
     inkscape:window-width="1920"
     inkscape:window-height="1057"
     inkscape:window-x="1912"
     inkscape:window-y="-8"
     inkscape:window-maximized="1"
     inkscape:current-layer="g25" />
  <g
     viewBox="0 0 90 20"
     preserveAspectRatio="xMidYMid meet"
     class="style-scope yt-icon"
     id="g25">
    <path
       d="M 27.9727,3.12324 C 27.6435,1.89323 26.6768,0.926623 25.4468,0.597366 23.2197,2.24288e-7 14.285,0 14.285,0 14.285,0 5.35042,2.24288e-7 3.12323,0.597366 1.89323,0.926623 0.926623,1.89323 0.597366,3.12324 2.24288e-7,5.35042 0,10 0,10 c 0,0 2.24288e-7,4.6496 0.597366,6.8768 0.329257,1.23 1.295864,2.1966 2.525864,2.5258 C 5.35042,20 14.285,20 14.285,20 c 0,0 8.9347,0 11.1618,-0.5974 1.23,-0.3292 2.1967,-1.2958 2.5259,-2.5258 C 28.5701,14.6496 28.5701,10 28.5701,10 c 0,0 -0.0024,-4.64958 -0.5974,-6.87676 z"
       fill="#ff0000"
       class="style-scope yt-icon"
       id="path2" />
    <path
       d="m 11.4253,14.2854 7.4224,-4.285 -7.4224,-4.28507 z"
       fill="#ffffff"
       class="style-scope yt-icon"
       id="path4" />
  </g>
</svg>
